<mxfile host="app.diagrams.net" agent="Mozilla/5.0 (Windows NT 10.0; Win64; x64) AppleWebKit/537.36 (KHTML, like Gecko) Chrome/132.0.0.0 YaBrowser/25.2.0.0 Safari/537.36" version="26.0.16">
  <diagram id="kgpKYQtTHZ0yAKxKKP6v" name="Page-1">
    <mxGraphModel dx="1687" dy="921" grid="1" gridSize="10" guides="1" tooltips="1" connect="1" arrows="1" fold="1" page="1" pageScale="1" pageWidth="2000" pageHeight="1100" math="0" shadow="0">
      <root>
        <mxCell id="0" />
        <mxCell id="1" parent="0" />
        <mxCell id="tM9eagX9OQxCErSUGmLS-1" value="Пользователь" style="rounded=0;whiteSpace=wrap;html=1;" parent="1" vertex="1">
          <mxGeometry x="1225" y="80" width="120" height="30" as="geometry" />
        </mxCell>
        <mxCell id="tM9eagX9OQxCErSUGmLS-2" value="Является&lt;div&gt;клиентом&lt;/div&gt;" style="rhombus;whiteSpace=wrap;html=1;" parent="1" vertex="1">
          <mxGeometry x="1045" y="50" width="90" height="90" as="geometry" />
        </mxCell>
        <mxCell id="tM9eagX9OQxCErSUGmLS-3" value="" style="endArrow=none;html=1;rounded=0;exitX=1;exitY=0.5;exitDx=0;exitDy=0;entryX=0;entryY=0.5;entryDx=0;entryDy=0;" parent="1" source="tM9eagX9OQxCErSUGmLS-2" target="tM9eagX9OQxCErSUGmLS-1" edge="1">
          <mxGeometry width="50" height="50" relative="1" as="geometry">
            <mxPoint x="1245" y="390" as="sourcePoint" />
            <mxPoint x="1325" y="390" as="targetPoint" />
          </mxGeometry>
        </mxCell>
        <mxCell id="tM9eagX9OQxCErSUGmLS-4" value="Является&lt;div&gt;админист-&lt;/div&gt;&lt;div&gt;ратором&lt;/div&gt;" style="rhombus;whiteSpace=wrap;html=1;" parent="1" vertex="1">
          <mxGeometry x="1435" y="50" width="90" height="90" as="geometry" />
        </mxCell>
        <mxCell id="tM9eagX9OQxCErSUGmLS-5" value="" style="endArrow=none;html=1;rounded=0;exitX=1;exitY=0.5;exitDx=0;exitDy=0;entryX=0;entryY=0.5;entryDx=0;entryDy=0;" parent="1" source="tM9eagX9OQxCErSUGmLS-1" target="tM9eagX9OQxCErSUGmLS-4" edge="1">
          <mxGeometry width="50" height="50" relative="1" as="geometry">
            <mxPoint x="1145" y="105" as="sourcePoint" />
            <mxPoint x="1235" y="105" as="targetPoint" />
          </mxGeometry>
        </mxCell>
        <mxCell id="tM9eagX9OQxCErSUGmLS-6" value="Администратор" style="rounded=0;whiteSpace=wrap;html=1;" parent="1" vertex="1">
          <mxGeometry x="1420" y="180" width="120" height="30" as="geometry" />
        </mxCell>
        <mxCell id="tM9eagX9OQxCErSUGmLS-7" value="" style="endArrow=none;html=1;rounded=0;entryX=0.5;entryY=1;entryDx=0;entryDy=0;exitX=0.5;exitY=0;exitDx=0;exitDy=0;" parent="1" source="tM9eagX9OQxCErSUGmLS-6" target="tM9eagX9OQxCErSUGmLS-4" edge="1">
          <mxGeometry width="50" height="50" relative="1" as="geometry">
            <mxPoint x="1275" y="440" as="sourcePoint" />
            <mxPoint x="1325" y="390" as="targetPoint" />
          </mxGeometry>
        </mxCell>
        <mxCell id="tM9eagX9OQxCErSUGmLS-8" value="Клиент" style="rounded=0;whiteSpace=wrap;html=1;" parent="1" vertex="1">
          <mxGeometry x="1030" y="180" width="120" height="30" as="geometry" />
        </mxCell>
        <mxCell id="tM9eagX9OQxCErSUGmLS-9" value="" style="endArrow=none;html=1;rounded=0;entryX=0.5;entryY=1;entryDx=0;entryDy=0;exitX=0.5;exitY=0;exitDx=0;exitDy=0;" parent="1" source="tM9eagX9OQxCErSUGmLS-8" edge="1">
          <mxGeometry width="50" height="50" relative="1" as="geometry">
            <mxPoint x="885" y="440" as="sourcePoint" />
            <mxPoint x="1090" y="140" as="targetPoint" />
          </mxGeometry>
        </mxCell>
        <mxCell id="tM9eagX9OQxCErSUGmLS-10" value="Имеет тех&lt;div&gt;обслужива-&lt;/div&gt;&lt;div&gt;ние&lt;/div&gt;" style="rhombus;whiteSpace=wrap;html=1;" parent="1" vertex="1">
          <mxGeometry x="1430" y="240" width="100" height="100" as="geometry" />
        </mxCell>
        <mxCell id="tM9eagX9OQxCErSUGmLS-11" value="" style="endArrow=none;html=1;rounded=0;entryX=0.5;entryY=1;entryDx=0;entryDy=0;exitX=0.5;exitY=0;exitDx=0;exitDy=0;" parent="1" source="tM9eagX9OQxCErSUGmLS-10" target="tM9eagX9OQxCErSUGmLS-6" edge="1">
          <mxGeometry width="50" height="50" relative="1" as="geometry">
            <mxPoint x="1275" y="440" as="sourcePoint" />
            <mxPoint x="1325" y="390" as="targetPoint" />
          </mxGeometry>
        </mxCell>
        <mxCell id="tM9eagX9OQxCErSUGmLS-12" value="Обслуживание" style="rounded=0;whiteSpace=wrap;html=1;" parent="1" vertex="1">
          <mxGeometry x="1420" y="380" width="120" height="30" as="geometry" />
        </mxCell>
        <mxCell id="tM9eagX9OQxCErSUGmLS-13" value="" style="endArrow=none;html=1;rounded=0;entryX=0.5;entryY=1;entryDx=0;entryDy=0;exitX=0.5;exitY=0;exitDx=0;exitDy=0;" parent="1" source="tM9eagX9OQxCErSUGmLS-12" target="tM9eagX9OQxCErSUGmLS-10" edge="1">
          <mxGeometry width="50" height="50" relative="1" as="geometry">
            <mxPoint x="1275" y="440" as="sourcePoint" />
            <mxPoint x="1325" y="390" as="targetPoint" />
          </mxGeometry>
        </mxCell>
        <mxCell id="tM9eagX9OQxCErSUGmLS-16" value="Обслуживание" style="rounded=0;whiteSpace=wrap;html=1;" parent="1" vertex="1">
          <mxGeometry x="1432.5" y="385" width="95" height="20" as="geometry" />
        </mxCell>
        <mxCell id="tM9eagX9OQxCErSUGmLS-17" value="Обслуживание" style="rounded=0;whiteSpace=wrap;html=1;" parent="1" vertex="1">
          <mxGeometry x="1420" y="180" width="120" height="30" as="geometry" />
        </mxCell>
        <mxCell id="tM9eagX9OQxCErSUGmLS-18" value="Администратор" style="rounded=0;whiteSpace=wrap;html=1;" parent="1" vertex="1">
          <mxGeometry x="1432.5" y="185" width="95" height="20" as="geometry" />
        </mxCell>
        <mxCell id="tM9eagX9OQxCErSUGmLS-19" value="Обслуживание" style="rounded=0;whiteSpace=wrap;html=1;" parent="1" vertex="1">
          <mxGeometry x="1030" y="180" width="120" height="30" as="geometry" />
        </mxCell>
        <mxCell id="tM9eagX9OQxCErSUGmLS-20" value="Клиент" style="rounded=0;whiteSpace=wrap;html=1;" parent="1" vertex="1">
          <mxGeometry x="1042.5" y="185" width="95" height="20" as="geometry" />
        </mxCell>
        <mxCell id="tM9eagX9OQxCErSUGmLS-21" value="Загружает&lt;div&gt;страницу&lt;/div&gt;" style="rhombus;whiteSpace=wrap;html=1;" parent="1" vertex="1">
          <mxGeometry x="1207.5" y="150" width="90" height="90" as="geometry" />
        </mxCell>
        <mxCell id="tM9eagX9OQxCErSUGmLS-22" value="" style="endArrow=none;html=1;rounded=0;entryX=0;entryY=0.5;entryDx=0;entryDy=0;exitX=1;exitY=0.5;exitDx=0;exitDy=0;" parent="1" source="tM9eagX9OQxCErSUGmLS-19" target="tM9eagX9OQxCErSUGmLS-21" edge="1">
          <mxGeometry width="50" height="50" relative="1" as="geometry">
            <mxPoint x="1140" y="320" as="sourcePoint" />
            <mxPoint x="1190" y="270" as="targetPoint" />
          </mxGeometry>
        </mxCell>
        <mxCell id="tM9eagX9OQxCErSUGmLS-25" value="Создает заказ" style="rhombus;whiteSpace=wrap;html=1;" parent="1" vertex="1">
          <mxGeometry x="970" y="260" width="110" height="110" as="geometry" />
        </mxCell>
        <mxCell id="tM9eagX9OQxCErSUGmLS-26" value="" style="endArrow=none;html=1;rounded=0;exitX=0.5;exitY=0;exitDx=0;exitDy=0;entryX=0.5;entryY=1;entryDx=0;entryDy=0;" parent="1" source="tM9eagX9OQxCErSUGmLS-25" target="tM9eagX9OQxCErSUGmLS-19" edge="1">
          <mxGeometry width="50" height="50" relative="1" as="geometry">
            <mxPoint x="1140" y="320" as="sourcePoint" />
            <mxPoint x="1090" y="260" as="targetPoint" />
            <Array as="points">
              <mxPoint x="1025" y="240" />
              <mxPoint x="1090" y="240" />
            </Array>
          </mxGeometry>
        </mxCell>
        <mxCell id="tM9eagX9OQxCErSUGmLS-28" value="Инициирует&lt;div&gt;возврат&lt;/div&gt;" style="rhombus;whiteSpace=wrap;html=1;" parent="1" vertex="1">
          <mxGeometry x="890" y="150" width="90" height="90" as="geometry" />
        </mxCell>
        <mxCell id="tM9eagX9OQxCErSUGmLS-29" value="" style="endArrow=none;html=1;rounded=0;entryX=0;entryY=0.5;entryDx=0;entryDy=0;exitX=1;exitY=0.5;exitDx=0;exitDy=0;" parent="1" source="tM9eagX9OQxCErSUGmLS-28" target="tM9eagX9OQxCErSUGmLS-19" edge="1">
          <mxGeometry width="50" height="50" relative="1" as="geometry">
            <mxPoint x="1140" y="320" as="sourcePoint" />
            <mxPoint x="1190" y="270" as="targetPoint" />
          </mxGeometry>
        </mxCell>
        <mxCell id="tM9eagX9OQxCErSUGmLS-30" value="Обслуживание" style="rounded=0;whiteSpace=wrap;html=1;" parent="1" vertex="1">
          <mxGeometry x="1280" y="280" width="120" height="30" as="geometry" />
        </mxCell>
        <mxCell id="tM9eagX9OQxCErSUGmLS-31" value="Фильтр" style="rounded=0;whiteSpace=wrap;html=1;" parent="1" vertex="1">
          <mxGeometry x="1292.5" y="285" width="95" height="20" as="geometry" />
        </mxCell>
        <mxCell id="tM9eagX9OQxCErSUGmLS-32" value="" style="endArrow=none;html=1;rounded=0;entryX=0.5;entryY=1;entryDx=0;entryDy=0;exitX=0;exitY=0.5;exitDx=0;exitDy=0;" parent="1" source="tM9eagX9OQxCErSUGmLS-30" target="tM9eagX9OQxCErSUGmLS-21" edge="1">
          <mxGeometry width="50" height="50" relative="1" as="geometry">
            <mxPoint x="1140" y="320" as="sourcePoint" />
            <mxPoint x="1190" y="270" as="targetPoint" />
            <Array as="points">
              <mxPoint x="1253" y="295" />
            </Array>
          </mxGeometry>
        </mxCell>
        <mxCell id="tM9eagX9OQxCErSUGmLS-33" value="Обслуживание" style="rounded=0;whiteSpace=wrap;html=1;" parent="1" vertex="1">
          <mxGeometry x="1110" y="280" width="120" height="30" as="geometry" />
        </mxCell>
        <mxCell id="tM9eagX9OQxCErSUGmLS-34" value="Динам объект" style="rounded=0;whiteSpace=wrap;html=1;" parent="1" vertex="1">
          <mxGeometry x="1122.5" y="285" width="95" height="20" as="geometry" />
        </mxCell>
        <mxCell id="tM9eagX9OQxCErSUGmLS-35" value="" style="endArrow=none;html=1;rounded=0;exitX=1;exitY=0.5;exitDx=0;exitDy=0;" parent="1" source="tM9eagX9OQxCErSUGmLS-33" edge="1">
          <mxGeometry width="50" height="50" relative="1" as="geometry">
            <mxPoint x="1140" y="320" as="sourcePoint" />
            <mxPoint x="1260" y="295" as="targetPoint" />
          </mxGeometry>
        </mxCell>
        <mxCell id="tM9eagX9OQxCErSUGmLS-36" value="Обслуживание" style="rounded=0;whiteSpace=wrap;html=1;" parent="1" vertex="1">
          <mxGeometry x="965" y="560" width="120" height="30" as="geometry" />
        </mxCell>
        <mxCell id="tM9eagX9OQxCErSUGmLS-37" value="Заказ" style="rounded=0;whiteSpace=wrap;html=1;" parent="1" vertex="1">
          <mxGeometry x="977.5" y="565" width="95" height="20" as="geometry" />
        </mxCell>
        <mxCell id="tM9eagX9OQxCErSUGmLS-38" value="" style="endArrow=none;html=1;rounded=0;entryX=0.5;entryY=1;entryDx=0;entryDy=0;exitX=0.5;exitY=0;exitDx=0;exitDy=0;" parent="1" source="tM9eagX9OQxCErSUGmLS-36" target="tM9eagX9OQxCErSUGmLS-25" edge="1">
          <mxGeometry width="50" height="50" relative="1" as="geometry">
            <mxPoint x="1140" y="320" as="sourcePoint" />
            <mxPoint x="1190" y="270" as="targetPoint" />
          </mxGeometry>
        </mxCell>
        <mxCell id="tM9eagX9OQxCErSUGmLS-39" value="Обслуживание" style="rounded=0;whiteSpace=wrap;html=1;" parent="1" vertex="1">
          <mxGeometry x="875" y="400" width="120" height="30" as="geometry" />
        </mxCell>
        <mxCell id="tM9eagX9OQxCErSUGmLS-40" value="Возврат" style="rounded=0;whiteSpace=wrap;html=1;" parent="1" vertex="1">
          <mxGeometry x="887.5" y="405" width="95" height="20" as="geometry" />
        </mxCell>
        <mxCell id="tM9eagX9OQxCErSUGmLS-41" value="" style="endArrow=none;html=1;rounded=0;entryX=0.5;entryY=1;entryDx=0;entryDy=0;exitX=0.5;exitY=0;exitDx=0;exitDy=0;" parent="1" source="tM9eagX9OQxCErSUGmLS-39" target="tM9eagX9OQxCErSUGmLS-28" edge="1">
          <mxGeometry width="50" height="50" relative="1" as="geometry">
            <mxPoint x="1140" y="320" as="sourcePoint" />
            <mxPoint x="1190" y="270" as="targetPoint" />
          </mxGeometry>
        </mxCell>
        <mxCell id="tM9eagX9OQxCErSUGmLS-43" value="Оформлен&lt;div&gt;возврат&lt;/div&gt;" style="rhombus;whiteSpace=wrap;html=1;" parent="1" vertex="1">
          <mxGeometry x="890" y="450" width="90" height="90" as="geometry" />
        </mxCell>
        <mxCell id="tM9eagX9OQxCErSUGmLS-45" value="" style="endArrow=none;html=1;rounded=0;entryX=0.5;entryY=1;entryDx=0;entryDy=0;exitX=0.5;exitY=0;exitDx=0;exitDy=0;" parent="1" source="tM9eagX9OQxCErSUGmLS-43" target="tM9eagX9OQxCErSUGmLS-39" edge="1">
          <mxGeometry width="50" height="50" relative="1" as="geometry">
            <mxPoint x="1140" y="320" as="sourcePoint" />
            <mxPoint x="1190" y="270" as="targetPoint" />
          </mxGeometry>
        </mxCell>
        <mxCell id="tM9eagX9OQxCErSUGmLS-46" value="" style="endArrow=none;html=1;rounded=0;entryX=0.5;entryY=1;entryDx=0;entryDy=0;exitX=0;exitY=0.5;exitDx=0;exitDy=0;" parent="1" source="tM9eagX9OQxCErSUGmLS-36" target="tM9eagX9OQxCErSUGmLS-43" edge="1">
          <mxGeometry width="50" height="50" relative="1" as="geometry">
            <mxPoint x="1140" y="320" as="sourcePoint" />
            <mxPoint x="1190" y="270" as="targetPoint" />
            <Array as="points">
              <mxPoint x="935" y="575" />
            </Array>
          </mxGeometry>
        </mxCell>
        <mxCell id="tM9eagX9OQxCErSUGmLS-47" value="Связан с&lt;div&gt;товаром&lt;/div&gt;" style="rhombus;whiteSpace=wrap;html=1;" parent="1" vertex="1">
          <mxGeometry x="980" y="620" width="90" height="90" as="geometry" />
        </mxCell>
        <mxCell id="tM9eagX9OQxCErSUGmLS-48" value="" style="endArrow=none;html=1;rounded=0;entryX=0.5;entryY=1;entryDx=0;entryDy=0;exitX=0.5;exitY=0;exitDx=0;exitDy=0;" parent="1" source="tM9eagX9OQxCErSUGmLS-47" target="tM9eagX9OQxCErSUGmLS-36" edge="1">
          <mxGeometry width="50" height="50" relative="1" as="geometry">
            <mxPoint x="1140" y="520" as="sourcePoint" />
            <mxPoint x="1190" y="470" as="targetPoint" />
          </mxGeometry>
        </mxCell>
        <mxCell id="tM9eagX9OQxCErSUGmLS-49" value="Обслуживание" style="rounded=0;whiteSpace=wrap;html=1;" parent="1" vertex="1">
          <mxGeometry x="965" y="740" width="120" height="30" as="geometry" />
        </mxCell>
        <mxCell id="tM9eagX9OQxCErSUGmLS-50" value="Товар" style="rounded=0;whiteSpace=wrap;html=1;" parent="1" vertex="1">
          <mxGeometry x="977.5" y="745" width="95" height="20" as="geometry" />
        </mxCell>
        <mxCell id="tM9eagX9OQxCErSUGmLS-51" value="" style="endArrow=none;html=1;rounded=0;entryX=0.5;entryY=1;entryDx=0;entryDy=0;exitX=0.5;exitY=0;exitDx=0;exitDy=0;" parent="1" source="tM9eagX9OQxCErSUGmLS-49" target="tM9eagX9OQxCErSUGmLS-47" edge="1">
          <mxGeometry width="50" height="50" relative="1" as="geometry">
            <mxPoint x="1140" y="520" as="sourcePoint" />
            <mxPoint x="1190" y="470" as="targetPoint" />
          </mxGeometry>
        </mxCell>
        <mxCell id="tM9eagX9OQxCErSUGmLS-53" value="Использует&lt;div&gt;фильтр&lt;/div&gt;" style="rhombus;whiteSpace=wrap;html=1;" parent="1" vertex="1">
          <mxGeometry x="1295" y="405" width="90" height="90" as="geometry" />
        </mxCell>
        <mxCell id="tM9eagX9OQxCErSUGmLS-54" value="" style="endArrow=none;html=1;rounded=0;entryX=0.5;entryY=1;entryDx=0;entryDy=0;exitX=0.5;exitY=0;exitDx=0;exitDy=0;" parent="1" source="tM9eagX9OQxCErSUGmLS-53" target="tM9eagX9OQxCErSUGmLS-30" edge="1">
          <mxGeometry width="50" height="50" relative="1" as="geometry">
            <mxPoint x="1140" y="420" as="sourcePoint" />
            <mxPoint x="1190" y="370" as="targetPoint" />
          </mxGeometry>
        </mxCell>
        <mxCell id="tM9eagX9OQxCErSUGmLS-55" value="" style="endArrow=none;html=1;rounded=0;entryX=0.5;entryY=1;entryDx=0;entryDy=0;exitX=1;exitY=0.5;exitDx=0;exitDy=0;" parent="1" source="tM9eagX9OQxCErSUGmLS-49" target="tM9eagX9OQxCErSUGmLS-53" edge="1">
          <mxGeometry width="50" height="50" relative="1" as="geometry">
            <mxPoint x="1140" y="420" as="sourcePoint" />
            <mxPoint x="1190" y="370" as="targetPoint" />
            <Array as="points">
              <mxPoint x="1340" y="755" />
              <mxPoint x="1340" y="575" />
            </Array>
          </mxGeometry>
        </mxCell>
        <mxCell id="p44IGE5x7w3q8pAwkI4_-1" value="" style="endArrow=none;html=1;rounded=0;exitX=1;exitY=0.5;exitDx=0;exitDy=0;" edge="1" parent="1" source="tM9eagX9OQxCErSUGmLS-2">
          <mxGeometry relative="1" as="geometry">
            <mxPoint x="1140" y="95" as="sourcePoint" />
            <mxPoint x="1225" y="94.5" as="targetPoint" />
          </mxGeometry>
        </mxCell>
        <mxCell id="p44IGE5x7w3q8pAwkI4_-2" value="1" style="resizable=0;html=1;whiteSpace=wrap;align=right;verticalAlign=bottom;" connectable="0" vertex="1" parent="p44IGE5x7w3q8pAwkI4_-1">
          <mxGeometry x="1" relative="1" as="geometry">
            <mxPoint x="-8" y="1" as="offset" />
          </mxGeometry>
        </mxCell>
        <mxCell id="p44IGE5x7w3q8pAwkI4_-3" value="" style="endArrow=none;html=1;rounded=0;exitX=0;exitY=0.5;exitDx=0;exitDy=0;" edge="1" parent="1" source="tM9eagX9OQxCErSUGmLS-4">
          <mxGeometry relative="1" as="geometry">
            <mxPoint x="1420" y="110" as="sourcePoint" />
            <mxPoint x="1360" y="95" as="targetPoint" />
          </mxGeometry>
        </mxCell>
        <mxCell id="p44IGE5x7w3q8pAwkI4_-4" value="1" style="resizable=0;html=1;whiteSpace=wrap;align=right;verticalAlign=bottom;" connectable="0" vertex="1" parent="p44IGE5x7w3q8pAwkI4_-3">
          <mxGeometry x="1" relative="1" as="geometry" />
        </mxCell>
        <mxCell id="p44IGE5x7w3q8pAwkI4_-5" value="" style="endArrow=classic;html=1;rounded=0;entryX=0.5;entryY=0;entryDx=0;entryDy=0;" edge="1" parent="1" target="tM9eagX9OQxCErSUGmLS-19">
          <mxGeometry width="50" height="50" relative="1" as="geometry">
            <mxPoint x="1090" y="140" as="sourcePoint" />
            <mxPoint x="1270" y="170" as="targetPoint" />
          </mxGeometry>
        </mxCell>
        <mxCell id="p44IGE5x7w3q8pAwkI4_-6" value="" style="endArrow=classic;html=1;rounded=0;entryX=0.5;entryY=0;entryDx=0;entryDy=0;exitX=0.5;exitY=1;exitDx=0;exitDy=0;" edge="1" parent="1" source="tM9eagX9OQxCErSUGmLS-4" target="tM9eagX9OQxCErSUGmLS-17">
          <mxGeometry width="50" height="50" relative="1" as="geometry">
            <mxPoint x="1100" y="150" as="sourcePoint" />
            <mxPoint x="1100" y="190" as="targetPoint" />
          </mxGeometry>
        </mxCell>
        <mxCell id="p44IGE5x7w3q8pAwkI4_-7" value="" style="endArrow=none;html=1;rounded=0;exitX=0.5;exitY=0;exitDx=0;exitDy=0;" edge="1" parent="1" source="tM9eagX9OQxCErSUGmLS-19">
          <mxGeometry relative="1" as="geometry">
            <mxPoint x="1145" y="105" as="sourcePoint" />
            <mxPoint x="1090" y="170" as="targetPoint" />
          </mxGeometry>
        </mxCell>
        <mxCell id="p44IGE5x7w3q8pAwkI4_-8" value="1" style="resizable=0;html=1;whiteSpace=wrap;align=right;verticalAlign=bottom;" connectable="0" vertex="1" parent="p44IGE5x7w3q8pAwkI4_-7">
          <mxGeometry x="1" relative="1" as="geometry">
            <mxPoint x="20" as="offset" />
          </mxGeometry>
        </mxCell>
        <mxCell id="p44IGE5x7w3q8pAwkI4_-9" value="1" style="resizable=0;html=1;whiteSpace=wrap;align=right;verticalAlign=bottom;" connectable="0" vertex="1" parent="1">
          <mxGeometry x="1500" y="170.00428571428566" as="geometry" />
        </mxCell>
        <mxCell id="p44IGE5x7w3q8pAwkI4_-10" value="" style="endArrow=classic;html=1;rounded=0;entryX=0.5;entryY=0;entryDx=0;entryDy=0;exitX=0.5;exitY=1;exitDx=0;exitDy=0;" edge="1" parent="1">
          <mxGeometry width="50" height="50" relative="1" as="geometry">
            <mxPoint x="1479.71" y="340" as="sourcePoint" />
            <mxPoint x="1479.71" y="380" as="targetPoint" />
          </mxGeometry>
        </mxCell>
        <mxCell id="p44IGE5x7w3q8pAwkI4_-11" value="1" style="resizable=0;html=1;whiteSpace=wrap;align=right;verticalAlign=bottom;" connectable="0" vertex="1" parent="1">
          <mxGeometry x="1500" y="370.00428571428563" as="geometry" />
        </mxCell>
        <mxCell id="p44IGE5x7w3q8pAwkI4_-12" value="1" style="resizable=0;html=1;whiteSpace=wrap;align=right;verticalAlign=bottom;" connectable="0" vertex="1" parent="1">
          <mxGeometry x="1500" y="230.00428571428563" as="geometry" />
        </mxCell>
        <mxCell id="p44IGE5x7w3q8pAwkI4_-13" value="1" style="resizable=0;html=1;whiteSpace=wrap;align=right;verticalAlign=bottom;" connectable="0" vertex="1" parent="1">
          <mxGeometry x="1170" y="219.99517241379314" as="geometry" />
        </mxCell>
        <mxCell id="p44IGE5x7w3q8pAwkI4_-14" value="N" style="resizable=0;html=1;whiteSpace=wrap;align=right;verticalAlign=bottom;" connectable="0" vertex="1" parent="1">
          <mxGeometry x="1240" y="329.99517241379317" as="geometry" />
        </mxCell>
        <mxCell id="p44IGE5x7w3q8pAwkI4_-15" value="M" style="resizable=0;html=1;whiteSpace=wrap;align=right;verticalAlign=bottom;" connectable="0" vertex="1" parent="1">
          <mxGeometry x="1280" y="329.99517241379317" as="geometry" />
        </mxCell>
        <mxCell id="p44IGE5x7w3q8pAwkI4_-16" value="" style="endArrow=classic;html=1;rounded=0;entryX=1;entryY=0.5;entryDx=0;entryDy=0;" edge="1" parent="1" target="tM9eagX9OQxCErSUGmLS-33">
          <mxGeometry width="50" height="50" relative="1" as="geometry">
            <mxPoint x="1250" y="295" as="sourcePoint" />
            <mxPoint x="1182.5" y="340" as="targetPoint" />
          </mxGeometry>
        </mxCell>
        <mxCell id="p44IGE5x7w3q8pAwkI4_-17" value="" style="endArrow=classic;html=1;rounded=0;entryX=0;entryY=0.5;entryDx=0;entryDy=0;" edge="1" parent="1" target="tM9eagX9OQxCErSUGmLS-30">
          <mxGeometry width="50" height="50" relative="1" as="geometry">
            <mxPoint x="1250" y="295" as="sourcePoint" />
            <mxPoint x="1240" y="305" as="targetPoint" />
          </mxGeometry>
        </mxCell>
        <mxCell id="p44IGE5x7w3q8pAwkI4_-18" value="N" style="resizable=0;html=1;whiteSpace=wrap;align=right;verticalAlign=bottom;" connectable="0" vertex="1" parent="1">
          <mxGeometry x="1110" y="744.9951724137932" as="geometry" />
        </mxCell>
        <mxCell id="p44IGE5x7w3q8pAwkI4_-19" value="" style="endArrow=classic;html=1;rounded=0;entryX=1;entryY=0.5;entryDx=0;entryDy=0;" edge="1" parent="1" target="tM9eagX9OQxCErSUGmLS-49">
          <mxGeometry width="50" height="50" relative="1" as="geometry">
            <mxPoint x="1340" y="755" as="sourcePoint" />
            <mxPoint x="1200" y="680" as="targetPoint" />
          </mxGeometry>
        </mxCell>
        <mxCell id="p44IGE5x7w3q8pAwkI4_-20" value="M" style="resizable=0;html=1;whiteSpace=wrap;align=right;verticalAlign=bottom;" connectable="0" vertex="1" parent="1">
          <mxGeometry x="1290" y="339.99517241379317" as="geometry">
            <mxPoint x="45" y="6" as="offset" />
          </mxGeometry>
        </mxCell>
        <mxCell id="p44IGE5x7w3q8pAwkI4_-21" value="1" style="resizable=0;html=1;whiteSpace=wrap;align=right;verticalAlign=bottom;" connectable="0" vertex="1" parent="1">
          <mxGeometry x="1080" y="230.00517241379313" as="geometry" />
        </mxCell>
        <mxCell id="p44IGE5x7w3q8pAwkI4_-22" value="1" style="resizable=0;html=1;whiteSpace=wrap;align=right;verticalAlign=bottom;" connectable="0" vertex="1" parent="1">
          <mxGeometry x="1045" y="549.9951724137932" as="geometry" />
        </mxCell>
        <mxCell id="p44IGE5x7w3q8pAwkI4_-23" value="" style="endArrow=classic;html=1;rounded=0;entryX=0.5;entryY=0;entryDx=0;entryDy=0;exitX=0.5;exitY=1;exitDx=0;exitDy=0;" edge="1" parent="1" source="tM9eagX9OQxCErSUGmLS-25" target="tM9eagX9OQxCErSUGmLS-36">
          <mxGeometry width="50" height="50" relative="1" as="geometry">
            <mxPoint x="1100" y="150" as="sourcePoint" />
            <mxPoint x="1100" y="190" as="targetPoint" />
          </mxGeometry>
        </mxCell>
        <mxCell id="p44IGE5x7w3q8pAwkI4_-24" value="1" style="resizable=0;html=1;whiteSpace=wrap;align=right;verticalAlign=bottom;" connectable="0" vertex="1" parent="1">
          <mxGeometry x="1045" y="619.9951724137932" as="geometry" />
        </mxCell>
        <mxCell id="p44IGE5x7w3q8pAwkI4_-25" value="1" style="resizable=0;html=1;whiteSpace=wrap;align=right;verticalAlign=bottom;" connectable="0" vertex="1" parent="1">
          <mxGeometry x="1042.5" y="729.9951724137932" as="geometry" />
        </mxCell>
        <mxCell id="p44IGE5x7w3q8pAwkI4_-26" value="" style="endArrow=classic;html=1;rounded=0;entryX=0.5;entryY=0;entryDx=0;entryDy=0;exitX=0.5;exitY=1;exitDx=0;exitDy=0;" edge="1" parent="1" source="tM9eagX9OQxCErSUGmLS-47" target="tM9eagX9OQxCErSUGmLS-49">
          <mxGeometry width="50" height="50" relative="1" as="geometry">
            <mxPoint x="1035" y="380" as="sourcePoint" />
            <mxPoint x="1035" y="570" as="targetPoint" />
          </mxGeometry>
        </mxCell>
        <mxCell id="p44IGE5x7w3q8pAwkI4_-27" value="1" style="resizable=0;html=1;whiteSpace=wrap;align=right;verticalAlign=bottom;" connectable="0" vertex="1" parent="1">
          <mxGeometry x="1010" y="219.99517241379317" as="geometry" />
        </mxCell>
        <mxCell id="p44IGE5x7w3q8pAwkI4_-28" value="1" style="resizable=0;html=1;whiteSpace=wrap;align=right;verticalAlign=bottom;" connectable="0" vertex="1" parent="1">
          <mxGeometry x="950" y="394.99517241379317" as="geometry" />
        </mxCell>
        <mxCell id="p44IGE5x7w3q8pAwkI4_-29" value="1" style="resizable=0;html=1;whiteSpace=wrap;align=right;verticalAlign=bottom;" connectable="0" vertex="1" parent="1">
          <mxGeometry x="960" y="599.9951724137932" as="geometry" />
        </mxCell>
        <mxCell id="p44IGE5x7w3q8pAwkI4_-30" value="" style="endArrow=classic;html=1;rounded=0;entryX=0.5;entryY=0;entryDx=0;entryDy=0;exitX=0.5;exitY=1;exitDx=0;exitDy=0;" edge="1" parent="1" source="tM9eagX9OQxCErSUGmLS-28" target="tM9eagX9OQxCErSUGmLS-39">
          <mxGeometry width="50" height="50" relative="1" as="geometry">
            <mxPoint x="1035" y="380" as="sourcePoint" />
            <mxPoint x="1035" y="570" as="targetPoint" />
          </mxGeometry>
        </mxCell>
        <mxCell id="p44IGE5x7w3q8pAwkI4_-31" value="" style="endArrow=classic;html=1;rounded=0;entryX=0;entryY=0.5;entryDx=0;entryDy=0;" edge="1" parent="1" target="tM9eagX9OQxCErSUGmLS-36">
          <mxGeometry width="50" height="50" relative="1" as="geometry">
            <mxPoint x="940" y="575" as="sourcePoint" />
            <mxPoint x="1045" y="580" as="targetPoint" />
          </mxGeometry>
        </mxCell>
      </root>
    </mxGraphModel>
  </diagram>
</mxfile>
